<svg width="104" height="138" viewBox="0 0 104 138" fill="none" xmlns="http://www.w3.org/2000/svg">
<rect width="104" height="104" rx="52" fill="white"/>
<path d="M40.3125 20.15C39.7875 20.45 39.7625 20.6125 39.75 22.9125V25.125L33.3625 52.25C29.4125 69.075 27 79.55 27.025 79.8375C27.05 80.15 27.1625 80.3625 27.375 80.525C27.7 80.7625 38.2875 84 38.7375 84C38.875 84 39.125 83.875 39.3 83.7125C39.525 83.525 41.775 78.3875 47.075 66C51.1875 56.4125 54.575 48.525 54.6125 48.475C54.6875 48.3875 59.375 59.175 59.375 59.4125C59.375 59.4625 58.225 59.5 56.8125 59.5C54.25 59.5 54.2375 59.5 53.9375 59.8125L53.625 60.1125V65.3V70.4875L53.9125 70.8125C54.1625 71.1 54.625 71.2125 59.7875 72.25C63.6875 73.025 65.4625 73.3375 65.6625 73.2625C65.8125 73.2 68.3875 70.95 71.375 68.2625C75.8 64.2875 76.8375 63.2875 76.975 62.9125C77.1 62.5625 77.125 61.8375 77.1 60.25L77.05 58.0625L73.375 41.9375L69.7 25.8125L69.6375 23.2125L69.5625 20.6L69.2125 20.3L68.8625 20H54.7125C44.3 20.0125 40.5 20.05 40.3125 20.15ZM46.125 23.1875V24.25H44H41.875V23.1875V22.125H44H46.125V23.1875ZM51.5 23.1875V24.25H49.875H48.25V23.1875V22.125H49.875H51.5V23.1875ZM55.75 23.1875V24.25H54.6875H53.625V23.1875V22.125H54.6875H55.75V23.1875ZM61.1 23.2125L61.1375 24.25H59.5H57.875V23.1875V22.1125L59.475 22.15L61.0625 22.1875L61.1 23.2125ZM67.5 23.1875V24.25H65.375H63.25V23.1875V22.125H65.375H67.5V23.1875ZM46.125 27.775C46.125 29.4375 45.875 30.1375 45.025 30.9C44.3125 31.5375 43.5125 31.75 41.7875 31.75C40.4875 31.75 40.3625 31.725 40.425 31.525C40.5 31.3 41.625 26.5 41.625 26.425C41.625 26.4 42.6375 26.375 43.875 26.375H46.125V27.775ZM53.625 35.8375V45.3125L45.8625 63.4375C41.5875 73.4 38.0875 81.575 38.075 81.5875C38.0375 81.6375 29.6 79.125 29.425 79.0125C29.325 78.9625 30.9625 71.8 34.575 56.4375C37.4875 44.0625 39.875 33.925 39.875 33.9C39.875 33.8875 40.625 33.875 41.55 33.875C44.225 33.875 45.3125 33.55 46.575 32.35C47.8 31.1875 48.25 29.95 48.25 27.6875V26.375H50.9375H53.625V35.8375ZM57.875 34.6625V42.95L57.225 43.4375C56.8625 43.7 56.375 44.05 56.1625 44.225L55.75 44.525V35.45V26.375H56.8125H57.875V34.6625ZM61.1375 28.125C61.225 30.0625 61.325 30.4625 62 31.4625C62.5625 32.3125 63.2375 32.9 64.1625 33.325C65.1 33.75 65.925 33.875 67.7625 33.875C69.325 33.875 69.375 33.8875 69.4375 34.15C70.875 40.25 74.875 58.425 74.875 58.875V59.5H68.325H61.775L59.075 53.2C57.5875 49.7375 56.375 46.85 56.375 46.7875C56.3875 46.7375 57.1125 46.15 57.9875 45.5C58.875 44.85 59.6875 44.1625 59.8 43.975C59.975 43.6875 60 42.6875 60 35V26.3625L60.5375 26.4L61.0625 26.4375L61.1375 28.125ZM68.275 29C68.6 30.4125 68.8625 31.6125 68.8625 31.675C68.875 31.725 68.125 31.7625 67.225 31.725C65.675 31.6875 65.5125 31.65 64.9 31.325C63.625 30.625 63.25 29.825 63.25 27.8125V26.375L65.4625 26.4L67.6875 26.4375L68.275 29ZM74.875 61.9375C74.875 62.1875 73.9125 63.1125 69.95 66.6875L65.025 71.125L60.6625 70.25C58.275 69.775 56.1875 69.35 56.0375 69.3125L55.75 69.25V65.4375V61.625H65.3125H74.875V61.9375Z" fill="#8F8F8F"/>
<path d="M29.9953 132V121.818H34.072C34.8211 121.818 35.4458 121.929 35.9463 122.151C36.4468 122.373 36.8229 122.682 37.0748 123.076C37.3267 123.467 37.4527 123.918 37.4527 124.428C37.4527 124.826 37.3731 125.176 37.214 125.477C37.055 125.776 36.8362 126.021 36.5578 126.213C36.2827 126.402 35.9678 126.536 35.6132 126.616V126.715C36.001 126.732 36.3639 126.841 36.702 127.043C37.0434 127.246 37.3201 127.529 37.5322 127.893C37.7443 128.255 37.8504 128.686 37.8504 129.186C37.8504 129.726 37.7162 130.209 37.4477 130.633C37.1826 131.054 36.7898 131.387 36.2694 131.632C35.7491 131.877 35.1077 132 34.3454 132H29.9953ZM32.148 130.24H33.903C34.5029 130.24 34.9404 130.126 35.2155 129.897C35.4906 129.665 35.6281 129.357 35.6281 128.972C35.6281 128.691 35.5602 128.442 35.4243 128.227C35.2884 128.011 35.0945 127.842 34.8426 127.719C34.594 127.597 34.2974 127.536 33.9527 127.536H32.148V130.24ZM32.148 126.079H33.7439C34.0389 126.079 34.3007 126.027 34.5294 125.925C34.7614 125.819 34.9437 125.67 35.0763 125.477C35.2122 125.285 35.2801 125.055 35.2801 124.786C35.2801 124.418 35.1492 124.122 34.8873 123.896C34.6288 123.671 34.2609 123.558 33.7836 123.558H32.148V126.079ZM43.4117 132.149C42.6394 132.149 41.9716 131.985 41.4081 131.657C40.848 131.326 40.4155 130.865 40.1105 130.275C39.8056 129.682 39.6531 128.994 39.6531 128.212C39.6531 127.423 39.8056 126.733 40.1105 126.143C40.4155 125.55 40.848 125.089 41.4081 124.761C41.9716 124.43 42.6394 124.264 43.4117 124.264C44.1839 124.264 44.8501 124.43 45.4102 124.761C45.9737 125.089 46.4079 125.55 46.7128 126.143C47.0177 126.733 47.1702 127.423 47.1702 128.212C47.1702 128.994 47.0177 129.682 46.7128 130.275C46.4079 130.865 45.9737 131.326 45.4102 131.657C44.8501 131.985 44.1839 132.149 43.4117 132.149ZM43.4216 130.509C43.7729 130.509 44.0663 130.409 44.3016 130.21C44.5369 130.008 44.7142 129.733 44.8335 129.385C44.9562 129.037 45.0175 128.641 45.0175 128.197C45.0175 127.753 44.9562 127.357 44.8335 127.009C44.7142 126.661 44.5369 126.385 44.3016 126.183C44.0663 125.981 43.7729 125.88 43.4216 125.88C43.067 125.88 42.7687 125.981 42.5267 126.183C42.2881 126.385 42.1075 126.661 41.9848 127.009C41.8655 127.357 41.8058 127.753 41.8058 128.197C41.8058 128.641 41.8655 129.037 41.9848 129.385C42.1075 129.733 42.2881 130.008 42.5267 130.21C42.7687 130.409 43.067 130.509 43.4216 130.509ZM51.4152 127.585V132H49.2973V124.364H51.3158V125.711H51.4053C51.5743 125.267 51.8577 124.915 52.2554 124.657C52.6531 124.395 53.1354 124.264 53.7021 124.264C54.2325 124.264 54.6948 124.38 55.0892 124.612C55.4836 124.844 55.7902 125.176 56.009 125.607C56.2277 126.034 56.3371 126.545 56.3371 127.138V132H54.2192V127.516C54.2225 127.048 54.1032 126.684 53.8612 126.422C53.6193 126.157 53.2862 126.024 52.8619 126.024C52.5769 126.024 52.325 126.085 52.1063 126.208C51.8908 126.331 51.7218 126.51 51.5992 126.745C51.4798 126.977 51.4185 127.257 51.4152 127.585ZM62.2364 132.149C61.4509 132.149 60.7748 131.99 60.208 131.672C59.6446 131.35 59.2104 130.896 58.9055 130.31C58.6005 129.72 58.4481 129.022 58.4481 128.217C58.4481 127.431 58.6005 126.742 58.9055 126.148C59.2104 125.555 59.6396 125.093 60.1931 124.761C60.7499 124.43 61.4028 124.264 62.1519 124.264C62.6557 124.264 63.1247 124.345 63.5589 124.508C63.9964 124.667 64.3775 124.907 64.7023 125.229C65.0305 125.55 65.2857 125.955 65.468 126.442C65.6502 126.926 65.7414 127.492 65.7414 128.142V128.724H59.2932V127.411H63.7478C63.7478 127.106 63.6815 126.836 63.5489 126.601C63.4163 126.366 63.2324 126.182 62.9971 126.049C62.7651 125.913 62.4949 125.845 62.1867 125.845C61.8652 125.845 61.5802 125.92 61.3316 126.069C61.0863 126.215 60.8941 126.412 60.7549 126.661C60.6157 126.906 60.5444 127.179 60.5411 127.481V128.729C60.5411 129.107 60.6107 129.433 60.7499 129.708C60.8924 129.983 61.093 130.195 61.3515 130.344C61.61 130.494 61.9166 130.568 62.2712 130.568C62.5065 130.568 62.722 130.535 62.9175 130.469C63.1131 130.402 63.2805 130.303 63.4197 130.17C63.5589 130.038 63.6649 129.875 63.7378 129.683L65.6966 129.812C65.5972 130.283 65.3934 130.694 65.0851 131.045C64.7802 131.393 64.3858 131.665 63.9019 131.861C63.4213 132.053 62.8662 132.149 62.2364 132.149ZM61.3415 123.379L62.3955 121.117H64.3543L62.838 123.379H61.3415ZM74.2272 126.541L72.2883 126.661C72.2551 126.495 72.1839 126.346 72.0745 126.213C71.9651 126.077 71.8209 125.969 71.642 125.89C71.4663 125.807 71.2558 125.766 71.0106 125.766C70.6824 125.766 70.4057 125.835 70.1803 125.974C69.9549 126.11 69.8422 126.293 69.8422 126.521C69.8422 126.704 69.9152 126.858 70.061 126.984C70.2068 127.11 70.4571 127.211 70.8117 127.287L72.1938 127.565C72.9362 127.718 73.4897 127.963 73.8543 128.301C74.2189 128.639 74.4012 129.083 74.4012 129.634C74.4012 130.134 74.2537 130.573 73.9587 130.951C73.6671 131.329 73.266 131.624 72.7556 131.836C72.2485 132.045 71.6635 132.149 71.0006 132.149C69.9897 132.149 69.1843 131.939 68.5844 131.518C67.9878 131.094 67.6382 130.517 67.5354 129.788L69.6185 129.678C69.6815 129.987 69.834 130.222 70.0759 130.384C70.3179 130.543 70.6278 130.623 71.0056 130.623C71.3768 130.623 71.6751 130.552 71.9005 130.409C72.1292 130.263 72.2452 130.076 72.2485 129.847C72.2452 129.655 72.164 129.498 72.0049 129.375C71.8458 129.249 71.6005 129.153 71.2691 129.087L69.9466 128.823C69.2009 128.674 68.6457 128.415 68.2812 128.048C67.9199 127.68 67.7393 127.211 67.7393 126.641C67.7393 126.15 67.8718 125.728 68.137 125.373C68.4055 125.018 68.7816 124.745 69.2655 124.553C69.7528 124.36 70.3228 124.264 70.9758 124.264C71.9403 124.264 72.6992 124.468 73.2528 124.876C73.8096 125.283 74.1344 125.839 74.2272 126.541Z" fill="#474747"/>
</svg>
