<svg width="104" height="138" viewBox="0 0 104 138" fill="none" xmlns="http://www.w3.org/2000/svg">
<rect width="104" height="104" rx="52" fill="white"/>
<path d="M40.3125 20.15C39.7875 20.45 39.7625 20.6125 39.75 22.9125V25.125L33.3625 52.25C29.4125 69.075 27 79.55 27.025 79.8375C27.05 80.15 27.1625 80.3625 27.375 80.525C27.7 80.7625 38.2875 84 38.7375 84C38.875 84 39.125 83.875 39.3 83.7125C39.525 83.525 41.775 78.3875 47.075 66C51.1875 56.4125 54.575 48.525 54.6125 48.475C54.6875 48.3875 59.375 59.175 59.375 59.4125C59.375 59.4625 58.225 59.5 56.8125 59.5C54.25 59.5 54.2375 59.5 53.9375 59.8125L53.625 60.1125V65.3V70.4875L53.9125 70.8125C54.1625 71.1 54.625 71.2125 59.7875 72.25C63.6875 73.025 65.4625 73.3375 65.6625 73.2625C65.8125 73.2 68.3875 70.95 71.375 68.2625C75.8 64.2875 76.8375 63.2875 76.975 62.9125C77.1 62.5625 77.125 61.8375 77.1 60.25L77.05 58.0625L73.375 41.9375L69.7 25.8125L69.6375 23.2125L69.5625 20.6L69.2125 20.3L68.8625 20H54.7125C44.3 20.0125 40.5 20.05 40.3125 20.15ZM46.125 23.1875V24.25H44H41.875V23.1875V22.125H44H46.125V23.1875ZM51.5 23.1875V24.25H49.875H48.25V23.1875V22.125H49.875H51.5V23.1875ZM55.75 23.1875V24.25H54.6875H53.625V23.1875V22.125H54.6875H55.75V23.1875ZM61.1 23.2125L61.1375 24.25H59.5H57.875V23.1875V22.1125L59.475 22.15L61.0625 22.1875L61.1 23.2125ZM67.5 23.1875V24.25H65.375H63.25V23.1875V22.125H65.375H67.5V23.1875ZM46.125 27.775C46.125 29.4375 45.875 30.1375 45.025 30.9C44.3125 31.5375 43.5125 31.75 41.7875 31.75C40.4875 31.75 40.3625 31.725 40.425 31.525C40.5 31.3 41.625 26.5 41.625 26.425C41.625 26.4 42.6375 26.375 43.875 26.375H46.125V27.775ZM53.625 35.8375V45.3125L45.8625 63.4375C41.5875 73.4 38.0875 81.575 38.075 81.5875C38.0375 81.6375 29.6 79.125 29.425 79.0125C29.325 78.9625 30.9625 71.8 34.575 56.4375C37.4875 44.0625 39.875 33.925 39.875 33.9C39.875 33.8875 40.625 33.875 41.55 33.875C44.225 33.875 45.3125 33.55 46.575 32.35C47.8 31.1875 48.25 29.95 48.25 27.6875V26.375H50.9375H53.625V35.8375ZM57.875 34.6625V42.95L57.225 43.4375C56.8625 43.7 56.375 44.05 56.1625 44.225L55.75 44.525V35.45V26.375H56.8125H57.875V34.6625ZM61.1375 28.125C61.225 30.0625 61.325 30.4625 62 31.4625C62.5625 32.3125 63.2375 32.9 64.1625 33.325C65.1 33.75 65.925 33.875 67.7625 33.875C69.325 33.875 69.375 33.8875 69.4375 34.15C70.875 40.25 74.875 58.425 74.875 58.875V59.5H68.325H61.775L59.075 53.2C57.5875 49.7375 56.375 46.85 56.375 46.7875C56.3875 46.7375 57.1125 46.15 57.9875 45.5C58.875 44.85 59.6875 44.1625 59.8 43.975C59.975 43.6875 60 42.6875 60 35V26.3625L60.5375 26.4L61.0625 26.4375L61.1375 28.125ZM68.275 29C68.6 30.4125 68.8625 31.6125 68.8625 31.675C68.875 31.725 68.125 31.7625 67.225 31.725C65.675 31.6875 65.5125 31.65 64.9 31.325C63.625 30.625 63.25 29.825 63.25 27.8125V26.375L65.4625 26.4L67.6875 26.4375L68.275 29ZM74.875 61.9375C74.875 62.1875 73.9125 63.1125 69.95 66.6875L65.025 71.125L60.6625 70.25C58.275 69.775 56.1875 69.35 56.0375 69.3125L55.75 69.25V65.4375V61.625H65.3125H74.875V61.9375Z" fill="#8F8F8F"/>
<path d="M36.1626 125.383H33.985C33.9452 125.101 33.864 124.851 33.7414 124.632C33.6188 124.41 33.4613 124.221 33.2691 124.065C33.0769 123.91 32.8548 123.79 32.6029 123.707C32.3543 123.625 32.0842 123.583 31.7925 123.583C31.2655 123.583 30.8065 123.714 30.4154 123.976C30.0243 124.234 29.721 124.612 29.5056 125.109C29.2902 125.603 29.1824 126.203 29.1824 126.909C29.1824 127.635 29.2902 128.245 29.5056 128.739C29.7243 129.232 30.0293 129.605 30.4204 129.857C30.8115 130.109 31.2639 130.235 31.7776 130.235C32.066 130.235 32.3328 130.197 32.578 130.121C32.8266 130.045 33.047 129.933 33.2393 129.788C33.4315 129.638 33.5906 129.458 33.7165 129.246C33.8458 129.034 33.9353 128.792 33.985 128.52L36.1626 128.53C36.1062 128.997 35.9653 129.448 35.74 129.882C35.5179 130.313 35.218 130.699 34.8401 131.04C34.4656 131.379 34.0181 131.647 33.4978 131.846C32.9807 132.041 32.3957 132.139 31.7428 132.139C30.8347 132.139 30.0226 131.934 29.3067 131.523C28.5941 131.112 28.0307 130.517 27.6164 129.738C27.2054 128.959 26.9999 128.016 26.9999 126.909C26.9999 125.799 27.2087 124.854 27.6263 124.075C28.0439 123.296 28.6107 122.703 29.3266 122.295C30.0425 121.884 30.8479 121.679 31.7428 121.679C32.3328 121.679 32.8796 121.762 33.3834 121.928C33.8905 122.093 34.3396 122.335 34.7307 122.653C35.1218 122.968 35.44 123.354 35.6853 123.812C35.9339 124.269 36.093 124.793 36.1626 125.383ZM40.594 132.144C40.1068 132.144 39.6726 132.06 39.2915 131.891C38.9103 131.718 38.6087 131.465 38.3866 131.13C38.1679 130.792 38.0585 130.371 38.0585 129.867C38.0585 129.443 38.1364 129.087 38.2922 128.798C38.4479 128.51 38.6601 128.278 38.9285 128.102C39.197 127.927 39.5019 127.794 39.8433 127.705C40.188 127.615 40.5493 127.552 40.9271 127.516C41.3712 127.469 41.7292 127.426 42.001 127.386C42.2728 127.343 42.47 127.28 42.5926 127.197C42.7152 127.115 42.7765 126.992 42.7765 126.83V126.8C42.7765 126.485 42.6771 126.241 42.4782 126.069C42.2827 125.897 42.0043 125.81 41.643 125.81C41.2619 125.81 40.9586 125.895 40.7332 126.064C40.5078 126.23 40.3587 126.438 40.2858 126.69L38.327 126.531C38.4264 126.067 38.622 125.666 38.9136 125.328C39.2053 124.987 39.5815 124.725 40.0422 124.543C40.5062 124.357 41.0431 124.264 41.653 124.264C42.0772 124.264 42.4832 124.314 42.871 124.413C43.2621 124.513 43.6085 124.667 43.9101 124.876C44.215 125.085 44.4553 125.353 44.6309 125.681C44.8066 126.006 44.8944 126.395 44.8944 126.849V132H42.8859V130.941H42.8263C42.7036 131.18 42.5396 131.39 42.3341 131.572C42.1286 131.751 41.8817 131.892 41.5933 131.995C41.305 132.094 40.9719 132.144 40.594 132.144ZM41.2006 130.683C41.5121 130.683 41.7872 130.621 42.0258 130.499C42.2645 130.373 42.4517 130.204 42.5876 129.991C42.7235 129.779 42.7915 129.539 42.7915 129.271V128.46C42.7252 128.503 42.634 128.543 42.518 128.58C42.4053 128.613 42.2777 128.644 42.1352 128.674C41.9927 128.701 41.8502 128.725 41.7077 128.749C41.5651 128.768 41.4359 128.787 41.3199 128.803C41.0713 128.84 40.8542 128.898 40.6686 128.977C40.483 129.057 40.3388 129.165 40.2361 129.3C40.1333 129.433 40.0819 129.599 40.0819 129.798C40.0819 130.086 40.1863 130.306 40.3952 130.459C40.6073 130.608 40.8757 130.683 41.2006 130.683ZM49.4055 121.818V132H47.2876V121.818H49.4055ZM55.3023 132.149C54.5201 132.149 53.8473 131.983 53.2838 131.652C52.7237 131.317 52.2928 130.853 51.9912 130.26C51.6929 129.667 51.5438 128.984 51.5438 128.212C51.5438 127.429 51.6946 126.743 51.9962 126.153C52.3011 125.56 52.7336 125.098 53.2938 124.766C53.8539 124.432 54.5201 124.264 55.2923 124.264C55.9585 124.264 56.5419 124.385 57.0423 124.627C57.5428 124.869 57.9389 125.209 58.2306 125.646C58.5222 126.084 58.683 126.598 58.7128 127.188H56.7142C56.6579 126.806 56.5087 126.5 56.2668 126.268C56.0281 126.032 55.7149 125.915 55.3271 125.915C54.999 125.915 54.7123 126.004 54.4671 126.183C54.2251 126.359 54.0362 126.616 53.9003 126.954C53.7644 127.292 53.6965 127.701 53.6965 128.182C53.6965 128.669 53.7628 129.083 53.8953 129.425C54.0312 129.766 54.2218 130.026 54.4671 130.205C54.7123 130.384 54.999 130.474 55.3271 130.474C55.5691 130.474 55.7862 130.424 55.9784 130.325C56.174 130.225 56.3347 130.081 56.4607 129.892C56.5899 129.7 56.6744 129.469 56.7142 129.201H58.7128C58.6797 129.784 58.5206 130.298 58.2355 130.742C57.9538 131.183 57.5644 131.528 57.0672 131.776C56.57 132.025 55.9817 132.149 55.3023 132.149ZM54.8051 131.96H55.7796L55.7 132.393C56.0414 132.446 56.3198 132.573 56.5352 132.776C56.754 132.978 56.865 133.253 56.8683 133.601C56.8717 134.095 56.643 134.487 56.1823 134.779C55.7216 135.074 55.0753 135.222 54.2433 135.222L54.2235 134.277C54.6411 134.277 54.9675 134.226 55.2029 134.123C55.4415 134.023 55.5658 133.868 55.5757 133.656C55.5824 133.453 55.5045 133.299 55.3421 133.193C55.1797 133.087 54.9261 133.013 54.5814 132.969L54.8051 131.96ZM62.9964 132.144C62.5091 132.144 62.075 132.06 61.6938 131.891C61.3126 131.718 61.011 131.465 60.789 131.13C60.5702 130.792 60.4608 130.371 60.4608 129.867C60.4608 129.443 60.5387 129.087 60.6945 128.798C60.8503 128.51 61.0624 128.278 61.3309 128.102C61.5993 127.927 61.9043 127.794 62.2456 127.705C62.5903 127.615 62.9516 127.552 63.3295 127.516C63.7736 127.469 64.1315 127.426 64.4033 127.386C64.6751 127.343 64.8723 127.28 64.9949 127.197C65.1176 127.115 65.1789 126.992 65.1789 126.83V126.8C65.1789 126.485 65.0795 126.241 64.8806 126.069C64.685 125.897 64.4066 125.81 64.0454 125.81C63.6642 125.81 63.3609 125.895 63.1356 126.064C62.9102 126.23 62.761 126.438 62.6881 126.69L60.7293 126.531C60.8287 126.067 61.0243 125.666 61.316 125.328C61.6076 124.987 61.9838 124.725 62.4445 124.543C62.9085 124.357 63.4455 124.264 64.0553 124.264C64.4796 124.264 64.8856 124.314 65.2733 124.413C65.6644 124.513 66.0108 124.667 66.3124 124.876C66.6173 125.085 66.8576 125.353 67.0333 125.681C67.209 126.006 67.2968 126.395 67.2968 126.849V132H65.2883V130.941H65.2286C65.106 131.18 64.9419 131.39 64.7364 131.572C64.5309 131.751 64.284 131.892 63.9956 131.995C63.7073 132.094 63.3742 132.144 62.9964 132.144ZM63.6029 130.683C63.9144 130.683 64.1895 130.621 64.4282 130.499C64.6668 130.373 64.8541 130.204 64.99 129.991C65.1259 129.779 65.1938 129.539 65.1938 129.271V128.46C65.1275 128.503 65.0364 128.543 64.9204 128.58C64.8077 128.613 64.6801 128.644 64.5376 128.674C64.395 128.701 64.2525 128.725 64.11 128.749C63.9675 128.768 63.8382 128.787 63.7222 128.803C63.4736 128.84 63.2565 128.898 63.0709 128.977C62.8853 129.057 62.7412 129.165 62.6384 129.3C62.5357 129.433 62.4843 129.599 62.4843 129.798C62.4843 130.086 62.5887 130.306 62.7975 130.459C63.0096 130.608 63.2781 130.683 63.6029 130.683ZM76.0436 126.541L74.1047 126.661C74.0715 126.495 74.0003 126.346 73.8909 126.213C73.7815 126.077 73.6373 125.969 73.4584 125.89C73.2827 125.807 73.0722 125.766 72.827 125.766C72.4988 125.766 72.2221 125.835 71.9967 125.974C71.7713 126.11 71.6586 126.293 71.6586 126.521C71.6586 126.704 71.7316 126.858 71.8774 126.984C72.0232 127.11 72.2735 127.211 72.6281 127.287L74.0102 127.565C74.7526 127.718 75.3061 127.963 75.6707 128.301C76.0353 128.639 76.2176 129.083 76.2176 129.634C76.2176 130.134 76.0701 130.573 75.7751 130.951C75.4835 131.329 75.0824 131.624 74.572 131.836C74.0649 132.045 73.4799 132.149 72.817 132.149C71.8061 132.149 71.0007 131.939 70.4008 131.518C69.8042 131.094 69.4546 130.517 69.3518 129.788L71.4349 129.678C71.4979 129.987 71.6504 130.222 71.8923 130.384C72.1343 130.543 72.4442 130.623 72.822 130.623C73.1932 130.623 73.4915 130.552 73.7169 130.409C73.9456 130.263 74.0616 130.076 74.0649 129.847C74.0616 129.655 73.9804 129.498 73.8213 129.375C73.6622 129.249 73.4169 129.153 73.0855 129.087L71.7631 128.823C71.0173 128.674 70.4622 128.415 70.0976 128.048C69.7363 127.68 69.5557 127.211 69.5557 126.641C69.5557 126.15 69.6882 125.728 69.9534 125.373C70.2219 125.018 70.598 124.745 71.0819 124.553C71.5692 124.36 72.1392 124.264 72.7922 124.264C73.7567 124.264 74.5157 124.468 75.0692 124.876C75.626 125.283 75.9508 125.839 76.0436 126.541Z" fill="#474747"/>
</svg>
