<svg width="104" height="138" viewBox="0 0 104 138" fill="none" xmlns="http://www.w3.org/2000/svg">
<rect width="104" height="104" rx="52" fill="white"/>
<mask id="path-2-outside-1_309_916" maskUnits="userSpaceOnUse" x="19.814" y="21.75" width="61" height="61" fill="black">
<rect fill="white" x="19.814" y="21.75" width="61" height="61"/>
<path d="M47.1365 22.5097C40.4765 23.3702 34.7347 26.1959 30.1436 30.8937C28.6908 32.3705 27.912 33.3356 26.773 35.0682C25.1457 37.5102 23.8556 40.4405 23.135 43.3243C22.4841 45.9174 22.333 47.2779 22.3446 50.4176C22.3446 52.8595 22.6119 57.5341 22.7979 58.5573C22.856 58.8713 22.8211 58.9294 22.4725 59.1039C21.8564 59.3946 21.4031 59.8248 21.1242 60.4062C20.5779 61.4877 20.5779 61.4412 22.5887 70.3833C24.6576 79.6045 24.5878 79.4068 25.7385 80.0929C26.6219 80.6278 27.1681 80.6743 28.6443 80.372C29.5741 80.1743 29.8763 80.1394 29.9228 80.2557C30.0274 80.5697 30.7945 81.2906 31.2595 81.5115C31.9917 81.872 33.0261 81.8255 35.1183 81.3604C37.1291 80.9069 37.3964 80.7906 38.0008 80.1278C38.5819 79.4882 38.7795 78.9766 38.7795 78.1742C38.7795 77.3137 34.2349 56.9759 33.8979 56.3131C33.5608 55.6619 32.7937 55.034 32.0266 54.813C31.457 54.6502 31.2943 54.6502 30.4923 54.8014L29.609 54.9642L29.5044 53.8595C29.33 51.8013 29.3998 47.5105 29.6206 46.3244C30.7597 40.2428 34.3047 35.1729 39.6164 31.9868C43.2312 29.8239 47.8106 28.7541 52.0414 29.0797C59.7591 29.6611 66.4191 34.1147 69.6851 40.8824C71.3937 44.4174 71.9051 47.3477 71.661 52.1618C71.5913 53.627 71.5099 54.8596 71.4867 54.9061C71.4518 54.941 71.0334 54.8944 70.5336 54.8014C69.72 54.6502 69.5689 54.6502 68.9878 54.813C68.2206 55.034 67.4535 55.6619 67.1164 56.3131C66.7794 56.9759 62.2348 77.3137 62.2348 78.1742C62.2348 78.9417 62.4324 79.465 62.9322 80.0464C63.5366 80.7208 63.9782 80.9185 65.8844 81.3487C68.023 81.8255 69.0226 81.872 69.7549 81.5115C70.2198 81.2906 70.9869 80.5697 71.0915 80.2557C71.138 80.1394 71.4402 80.1743 72.37 80.372C73.8462 80.6743 74.3925 80.6278 75.2758 80.0929C76.4149 79.4068 76.3684 79.5812 78.3791 70.674C80.3783 61.8016 80.4364 61.4412 79.9018 60.4179C79.6344 59.9062 79.1114 59.3946 78.4605 59.0225C78.2862 58.9178 78.2745 58.7899 78.3908 57.6271C78.8441 52.906 78.8557 47.8826 78.4024 45.3593C76.5543 34.9054 68.8367 26.4168 58.4689 23.4167C55.9467 22.6958 54.0638 22.4283 51.0302 22.3818C49.2402 22.3585 47.9617 22.3934 47.1365 22.5097ZM53.9592 24.0214C64.1991 25.3586 72.6722 32.1844 75.9267 41.6964C77.3098 45.7895 77.5655 49.3012 76.996 56.5224C76.8333 58.6039 76.8333 58.6039 76.3451 58.4759C76.0197 58.3945 75.9616 58.3248 75.9616 58.0341C75.9616 57.0922 74.9271 55.8596 73.8578 55.5456C73.5207 55.441 73.172 55.3596 73.0907 55.3596C72.9628 55.3596 72.9396 55.2084 72.9861 54.6851C73.1488 52.906 73.1837 52.2199 73.172 50.0687C73.172 48.5803 73.1139 47.3244 72.9977 46.5919C72.4514 43.022 71.0334 39.58 68.9064 36.6962C67.8719 35.3008 65.3497 32.8124 63.9899 31.8472C60.8749 29.6378 57.4461 28.2657 53.7267 27.7424C52.146 27.5215 48.9962 27.5215 47.3573 27.7541C37.8962 29.0681 30.1669 36.2194 28.3188 45.3244C27.819 47.7663 27.7609 49.4989 28.0399 54.1037C28.098 55.1619 28.0864 55.3596 27.9353 55.3596C27.8423 55.3596 27.5052 55.441 27.1798 55.534C26.1221 55.848 25.0528 57.0922 25.0528 58.0224C25.0528 58.3597 24.89 58.4992 24.4832 58.4992C24.3089 58.4992 24.2624 58.3597 24.2043 57.7782C23.9718 55.4526 23.8556 52.9874 23.844 50.4176C23.8323 47.2082 23.9602 46.1267 24.6111 43.5569C26.773 35.1148 33.3748 28.068 41.8015 25.2424C43.6496 24.6261 46.0207 24.1028 47.8339 23.9284C49.0543 23.8004 52.7155 23.8586 53.9592 24.0214ZM31.9917 56.4061C32.2009 56.5224 32.445 56.7433 32.538 56.8945C32.631 57.0457 33.7584 61.9063 35.0602 67.6972L37.408 78.2324L37.1872 78.6742C37.071 78.9184 36.8385 79.2208 36.6758 79.3371C36.269 79.6278 32.7821 80.3952 32.2823 80.3022C32.0731 80.2673 31.736 80.0929 31.5384 79.9068C31.1316 79.5464 31.3757 80.558 28.1329 65.9878L26.4127 58.2899L26.6335 57.848C26.7613 57.6038 26.9822 57.3131 27.1449 57.1968C27.4355 56.9875 30.6318 56.1968 31.2711 56.1852C31.4687 56.1735 31.7825 56.2782 31.9917 56.4061ZM71.754 56.5805C72.7536 56.8015 73.7067 57.0806 73.8694 57.1968C74.0321 57.3131 74.253 57.6038 74.3808 57.848L74.6017 58.2899L72.8931 65.9297C69.5457 80.9418 69.8827 79.5464 69.4759 79.9068C69.2783 80.0813 68.9413 80.2673 68.732 80.3022C68.2323 80.3952 64.7453 79.6278 64.3385 79.3371C64.1758 79.2208 63.9434 78.9184 63.8271 78.6742L63.6063 78.2324L65.9541 67.6972C67.2559 61.9063 68.3834 57.0457 68.4763 56.8945C68.6972 56.5573 69.3132 56.1735 69.6619 56.1735C69.813 56.1735 70.7544 56.3596 71.754 56.5805ZM25.3201 60.2086C25.355 60.3946 26.2848 64.5343 27.3774 69.4298C28.4699 74.3253 29.3765 78.4068 29.3881 78.4998C29.4114 78.6742 28.1212 79.058 27.4006 79.0696C26.8892 79.0812 26.2848 78.7905 26.0407 78.4184C25.8315 78.1045 22.2632 62.3482 22.2632 61.7435C22.2632 61.29 22.6236 60.6853 23.0071 60.4876C23.2512 60.3481 24.7622 59.9411 25.1225 59.9062C25.1922 59.8946 25.2852 60.0341 25.3201 60.2086ZM76.8682 60.1272C77.4028 60.2551 77.9491 60.4411 78.0769 60.5341C78.4605 60.79 78.7511 61.3132 78.7511 61.7319C78.7511 62.3249 75.1828 78.1045 74.9736 78.4184C74.7295 78.7905 74.1251 79.0812 73.6137 79.0696C72.8931 79.058 71.6029 78.6742 71.6262 78.4998C71.6378 78.4068 72.5444 74.3253 73.637 69.4298C74.7295 64.5343 75.6594 60.3946 75.6942 60.2086C75.7291 60.0341 75.7872 59.8946 75.8337 59.8946C75.8686 59.8946 76.3451 59.9992 76.8682 60.1272Z"/>
</mask>
<path d="M47.1365 22.5097C40.4765 23.3702 34.7347 26.1959 30.1436 30.8937C28.6908 32.3705 27.912 33.3356 26.773 35.0682C25.1457 37.5102 23.8556 40.4405 23.135 43.3243C22.4841 45.9174 22.333 47.2779 22.3446 50.4176C22.3446 52.8595 22.6119 57.5341 22.7979 58.5573C22.856 58.8713 22.8211 58.9294 22.4725 59.1039C21.8564 59.3946 21.4031 59.8248 21.1242 60.4062C20.5779 61.4877 20.5779 61.4412 22.5887 70.3833C24.6576 79.6045 24.5878 79.4068 25.7385 80.0929C26.6219 80.6278 27.1681 80.6743 28.6443 80.372C29.5741 80.1743 29.8763 80.1394 29.9228 80.2557C30.0274 80.5697 30.7945 81.2906 31.2595 81.5115C31.9917 81.872 33.0261 81.8255 35.1183 81.3604C37.1291 80.9069 37.3964 80.7906 38.0008 80.1278C38.5819 79.4882 38.7795 78.9766 38.7795 78.1742C38.7795 77.3137 34.2349 56.9759 33.8979 56.3131C33.5608 55.6619 32.7937 55.034 32.0266 54.813C31.457 54.6502 31.2943 54.6502 30.4923 54.8014L29.609 54.9642L29.5044 53.8595C29.33 51.8013 29.3998 47.5105 29.6206 46.3244C30.7597 40.2428 34.3047 35.1729 39.6164 31.9868C43.2312 29.8239 47.8106 28.7541 52.0414 29.0797C59.7591 29.6611 66.4191 34.1147 69.6851 40.8824C71.3937 44.4174 71.9051 47.3477 71.661 52.1618C71.5913 53.627 71.5099 54.8596 71.4867 54.9061C71.4518 54.941 71.0334 54.8944 70.5336 54.8014C69.72 54.6502 69.5689 54.6502 68.9878 54.813C68.2206 55.034 67.4535 55.6619 67.1164 56.3131C66.7794 56.9759 62.2348 77.3137 62.2348 78.1742C62.2348 78.9417 62.4324 79.465 62.9322 80.0464C63.5366 80.7208 63.9782 80.9185 65.8844 81.3487C68.023 81.8255 69.0226 81.872 69.7549 81.5115C70.2198 81.2906 70.9869 80.5697 71.0915 80.2557C71.138 80.1394 71.4402 80.1743 72.37 80.372C73.8462 80.6743 74.3925 80.6278 75.2758 80.0929C76.4149 79.4068 76.3684 79.5812 78.3791 70.674C80.3783 61.8016 80.4364 61.4412 79.9018 60.4179C79.6344 59.9062 79.1114 59.3946 78.4605 59.0225C78.2862 58.9178 78.2745 58.7899 78.3908 57.6271C78.8441 52.906 78.8557 47.8826 78.4024 45.3593C76.5543 34.9054 68.8367 26.4168 58.4689 23.4167C55.9467 22.6958 54.0638 22.4283 51.0302 22.3818C49.2402 22.3585 47.9617 22.3934 47.1365 22.5097ZM53.9592 24.0214C64.1991 25.3586 72.6722 32.1844 75.9267 41.6964C77.3098 45.7895 77.5655 49.3012 76.996 56.5224C76.8333 58.6039 76.8333 58.6039 76.3451 58.4759C76.0197 58.3945 75.9616 58.3248 75.9616 58.0341C75.9616 57.0922 74.9271 55.8596 73.8578 55.5456C73.5207 55.441 73.172 55.3596 73.0907 55.3596C72.9628 55.3596 72.9396 55.2084 72.9861 54.6851C73.1488 52.906 73.1837 52.2199 73.172 50.0687C73.172 48.5803 73.1139 47.3244 72.9977 46.5919C72.4514 43.022 71.0334 39.58 68.9064 36.6962C67.8719 35.3008 65.3497 32.8124 63.9899 31.8472C60.8749 29.6378 57.4461 28.2657 53.7267 27.7424C52.146 27.5215 48.9962 27.5215 47.3573 27.7541C37.8962 29.0681 30.1669 36.2194 28.3188 45.3244C27.819 47.7663 27.7609 49.4989 28.0399 54.1037C28.098 55.1619 28.0864 55.3596 27.9353 55.3596C27.8423 55.3596 27.5052 55.441 27.1798 55.534C26.1221 55.848 25.0528 57.0922 25.0528 58.0224C25.0528 58.3597 24.89 58.4992 24.4832 58.4992C24.3089 58.4992 24.2624 58.3597 24.2043 57.7782C23.9718 55.4526 23.8556 52.9874 23.844 50.4176C23.8323 47.2082 23.9602 46.1267 24.6111 43.5569C26.773 35.1148 33.3748 28.068 41.8015 25.2424C43.6496 24.6261 46.0207 24.1028 47.8339 23.9284C49.0543 23.8004 52.7155 23.8586 53.9592 24.0214ZM31.9917 56.4061C32.2009 56.5224 32.445 56.7433 32.538 56.8945C32.631 57.0457 33.7584 61.9063 35.0602 67.6972L37.408 78.2324L37.1872 78.6742C37.071 78.9184 36.8385 79.2208 36.6758 79.3371C36.269 79.6278 32.7821 80.3952 32.2823 80.3022C32.0731 80.2673 31.736 80.0929 31.5384 79.9068C31.1316 79.5464 31.3757 80.558 28.1329 65.9878L26.4127 58.2899L26.6335 57.848C26.7613 57.6038 26.9822 57.3131 27.1449 57.1968C27.4355 56.9875 30.6318 56.1968 31.2711 56.1852C31.4687 56.1735 31.7825 56.2782 31.9917 56.4061ZM71.754 56.5805C72.7536 56.8015 73.7067 57.0806 73.8694 57.1968C74.0321 57.3131 74.253 57.6038 74.3808 57.848L74.6017 58.2899L72.8931 65.9297C69.5457 80.9418 69.8827 79.5464 69.4759 79.9068C69.2783 80.0813 68.9413 80.2673 68.732 80.3022C68.2323 80.3952 64.7453 79.6278 64.3385 79.3371C64.1758 79.2208 63.9434 78.9184 63.8271 78.6742L63.6063 78.2324L65.9541 67.6972C67.2559 61.9063 68.3834 57.0457 68.4763 56.8945C68.6972 56.5573 69.3132 56.1735 69.6619 56.1735C69.813 56.1735 70.7544 56.3596 71.754 56.5805ZM25.3201 60.2086C25.355 60.3946 26.2848 64.5343 27.3774 69.4298C28.4699 74.3253 29.3765 78.4068 29.3881 78.4998C29.4114 78.6742 28.1212 79.058 27.4006 79.0696C26.8892 79.0812 26.2848 78.7905 26.0407 78.4184C25.8315 78.1045 22.2632 62.3482 22.2632 61.7435C22.2632 61.29 22.6236 60.6853 23.0071 60.4876C23.2512 60.3481 24.7622 59.9411 25.1225 59.9062C25.1922 59.8946 25.2852 60.0341 25.3201 60.2086ZM76.8682 60.1272C77.4028 60.2551 77.9491 60.4411 78.0769 60.5341C78.4605 60.79 78.7511 61.3132 78.7511 61.7319C78.7511 62.3249 75.1828 78.1045 74.9736 78.4184C74.7295 78.7905 74.1251 79.0812 73.6137 79.0696C72.8931 79.058 71.6029 78.6742 71.6262 78.4998C71.6378 78.4068 72.5444 74.3253 73.637 69.4298C74.7295 64.5343 75.6594 60.3946 75.6942 60.2086C75.7291 60.0341 75.7872 59.8946 75.8337 59.8946C75.8686 59.8946 76.3451 59.9992 76.8682 60.1272Z" fill="#8F8F8F"/>
<path d="M47.1365 22.5097C40.4765 23.3702 34.7347 26.1959 30.1436 30.8937C28.6908 32.3705 27.912 33.3356 26.773 35.0682C25.1457 37.5102 23.8556 40.4405 23.135 43.3243C22.4841 45.9174 22.333 47.2779 22.3446 50.4176C22.3446 52.8595 22.6119 57.5341 22.7979 58.5573C22.856 58.8713 22.8211 58.9294 22.4725 59.1039C21.8564 59.3946 21.4031 59.8248 21.1242 60.4062C20.5779 61.4877 20.5779 61.4412 22.5887 70.3833C24.6576 79.6045 24.5878 79.4068 25.7385 80.0929C26.6219 80.6278 27.1681 80.6743 28.6443 80.372C29.5741 80.1743 29.8763 80.1394 29.9228 80.2557C30.0274 80.5697 30.7945 81.2906 31.2595 81.5115C31.9917 81.872 33.0261 81.8255 35.1183 81.3604C37.1291 80.9069 37.3964 80.7906 38.0008 80.1278C38.5819 79.4882 38.7795 78.9766 38.7795 78.1742C38.7795 77.3137 34.2349 56.9759 33.8979 56.3131C33.5608 55.6619 32.7937 55.034 32.0266 54.813C31.457 54.6502 31.2943 54.6502 30.4923 54.8014L29.609 54.9642L29.5044 53.8595C29.33 51.8013 29.3998 47.5105 29.6206 46.3244C30.7597 40.2428 34.3047 35.1729 39.6164 31.9868C43.2312 29.8239 47.8106 28.7541 52.0414 29.0797C59.7591 29.6611 66.4191 34.1147 69.6851 40.8824C71.3937 44.4174 71.9051 47.3477 71.661 52.1618C71.5913 53.627 71.5099 54.8596 71.4867 54.9061C71.4518 54.941 71.0334 54.8944 70.5336 54.8014C69.72 54.6502 69.5689 54.6502 68.9878 54.813C68.2206 55.034 67.4535 55.6619 67.1164 56.3131C66.7794 56.9759 62.2348 77.3137 62.2348 78.1742C62.2348 78.9417 62.4324 79.465 62.9322 80.0464C63.5366 80.7208 63.9782 80.9185 65.8844 81.3487C68.023 81.8255 69.0226 81.872 69.7549 81.5115C70.2198 81.2906 70.9869 80.5697 71.0915 80.2557C71.138 80.1394 71.4402 80.1743 72.37 80.372C73.8462 80.6743 74.3925 80.6278 75.2758 80.0929C76.4149 79.4068 76.3684 79.5812 78.3791 70.674C80.3783 61.8016 80.4364 61.4412 79.9018 60.4179C79.6344 59.9062 79.1114 59.3946 78.4605 59.0225C78.2862 58.9178 78.2745 58.7899 78.3908 57.6271C78.8441 52.906 78.8557 47.8826 78.4024 45.3593C76.5543 34.9054 68.8367 26.4168 58.4689 23.4167C55.9467 22.6958 54.0638 22.4283 51.0302 22.3818C49.2402 22.3585 47.9617 22.3934 47.1365 22.5097ZM53.9592 24.0214C64.1991 25.3586 72.6722 32.1844 75.9267 41.6964C77.3098 45.7895 77.5655 49.3012 76.996 56.5224C76.8333 58.6039 76.8333 58.6039 76.3451 58.4759C76.0197 58.3945 75.9616 58.3248 75.9616 58.0341C75.9616 57.0922 74.9271 55.8596 73.8578 55.5456C73.5207 55.441 73.172 55.3596 73.0907 55.3596C72.9628 55.3596 72.9396 55.2084 72.9861 54.6851C73.1488 52.906 73.1837 52.2199 73.172 50.0687C73.172 48.5803 73.1139 47.3244 72.9977 46.5919C72.4514 43.022 71.0334 39.58 68.9064 36.6962C67.8719 35.3008 65.3497 32.8124 63.9899 31.8472C60.8749 29.6378 57.4461 28.2657 53.7267 27.7424C52.146 27.5215 48.9962 27.5215 47.3573 27.7541C37.8962 29.0681 30.1669 36.2194 28.3188 45.3244C27.819 47.7663 27.7609 49.4989 28.0399 54.1037C28.098 55.1619 28.0864 55.3596 27.9353 55.3596C27.8423 55.3596 27.5052 55.441 27.1798 55.534C26.1221 55.848 25.0528 57.0922 25.0528 58.0224C25.0528 58.3597 24.89 58.4992 24.4832 58.4992C24.3089 58.4992 24.2624 58.3597 24.2043 57.7782C23.9718 55.4526 23.8556 52.9874 23.844 50.4176C23.8323 47.2082 23.9602 46.1267 24.6111 43.5569C26.773 35.1148 33.3748 28.068 41.8015 25.2424C43.6496 24.6261 46.0207 24.1028 47.8339 23.9284C49.0543 23.8004 52.7155 23.8586 53.9592 24.0214ZM31.9917 56.4061C32.2009 56.5224 32.445 56.7433 32.538 56.8945C32.631 57.0457 33.7584 61.9063 35.0602 67.6972L37.408 78.2324L37.1872 78.6742C37.071 78.9184 36.8385 79.2208 36.6758 79.3371C36.269 79.6278 32.7821 80.3952 32.2823 80.3022C32.0731 80.2673 31.736 80.0929 31.5384 79.9068C31.1316 79.5464 31.3757 80.558 28.1329 65.9878L26.4127 58.2899L26.6335 57.848C26.7613 57.6038 26.9822 57.3131 27.1449 57.1968C27.4355 56.9875 30.6318 56.1968 31.2711 56.1852C31.4687 56.1735 31.7825 56.2782 31.9917 56.4061ZM71.754 56.5805C72.7536 56.8015 73.7067 57.0806 73.8694 57.1968C74.0321 57.3131 74.253 57.6038 74.3808 57.848L74.6017 58.2899L72.8931 65.9297C69.5457 80.9418 69.8827 79.5464 69.4759 79.9068C69.2783 80.0813 68.9413 80.2673 68.732 80.3022C68.2323 80.3952 64.7453 79.6278 64.3385 79.3371C64.1758 79.2208 63.9434 78.9184 63.8271 78.6742L63.6063 78.2324L65.9541 67.6972C67.2559 61.9063 68.3834 57.0457 68.4763 56.8945C68.6972 56.5573 69.3132 56.1735 69.6619 56.1735C69.813 56.1735 70.7544 56.3596 71.754 56.5805ZM25.3201 60.2086C25.355 60.3946 26.2848 64.5343 27.3774 69.4298C28.4699 74.3253 29.3765 78.4068 29.3881 78.4998C29.4114 78.6742 28.1212 79.058 27.4006 79.0696C26.8892 79.0812 26.2848 78.7905 26.0407 78.4184C25.8315 78.1045 22.2632 62.3482 22.2632 61.7435C22.2632 61.29 22.6236 60.6853 23.0071 60.4876C23.2512 60.3481 24.7622 59.9411 25.1225 59.9062C25.1922 59.8946 25.2852 60.0341 25.3201 60.2086ZM76.8682 60.1272C77.4028 60.2551 77.9491 60.4411 78.0769 60.5341C78.4605 60.79 78.7511 61.3132 78.7511 61.7319C78.7511 62.3249 75.1828 78.1045 74.9736 78.4184C74.7295 78.7905 74.1251 79.0812 73.6137 79.0696C72.8931 79.058 71.6029 78.6742 71.6262 78.4998C71.6378 78.4068 72.5444 74.3253 73.637 69.4298C74.7295 64.5343 75.6594 60.3946 75.6942 60.2086C75.7291 60.0341 75.7872 59.8946 75.8337 59.8946C75.8686 59.8946 76.3451 59.9992 76.8682 60.1272Z" stroke="#8F8F8F" stroke-width="0.25" mask="url(#path-2-outside-1_309_916)"/>
<path d="M6.03338 132V121.818H8.18608V126.019H12.5561V121.818H14.7038V132H12.5561V127.794H8.18608V132H6.03338ZM20.669 132.149C19.8835 132.149 19.2074 131.99 18.6406 131.672C18.0772 131.35 17.643 130.896 17.3381 130.31C17.0331 129.72 16.8807 129.022 16.8807 128.217C16.8807 127.431 17.0331 126.742 17.3381 126.148C17.643 125.555 18.0722 125.093 18.6257 124.761C19.1825 124.43 19.8355 124.264 20.5845 124.264C21.0883 124.264 21.5573 124.345 21.9915 124.508C22.429 124.667 22.8101 124.907 23.1349 125.229C23.4631 125.55 23.7183 125.955 23.9006 126.442C24.0829 126.926 24.174 127.492 24.174 128.142V128.724H17.7259V127.411H22.1804C22.1804 127.106 22.1141 126.836 21.9815 126.601C21.849 126.366 21.665 126.182 21.4297 126.049C21.1977 125.913 20.9276 125.845 20.6193 125.845C20.2978 125.845 20.0128 125.92 19.7642 126.069C19.5189 126.215 19.3267 126.412 19.1875 126.661C19.0483 126.906 18.977 127.179 18.9737 127.481V128.729C18.9737 129.107 19.0433 129.433 19.1825 129.708C19.325 129.983 19.5256 130.195 19.7841 130.344C20.0426 130.494 20.3492 130.568 20.7038 130.568C20.9392 130.568 21.1546 130.535 21.3501 130.469C21.5457 130.402 21.7131 130.303 21.8523 130.17C21.9915 130.038 22.0975 129.875 22.1705 129.683L24.1293 129.812C24.0298 130.283 23.826 130.694 23.5178 131.045C23.2128 131.393 22.8184 131.665 22.3345 131.861C21.8539 132.053 21.2988 132.149 20.669 132.149ZM28.4837 132.144C27.9964 132.144 27.5623 132.06 27.1811 131.891C26.8 131.718 26.4983 131.465 26.2763 131.13C26.0575 130.792 25.9482 130.371 25.9482 129.867C25.9482 129.443 26.026 129.087 26.1818 128.798C26.3376 128.51 26.5497 128.278 26.8182 128.102C27.0866 127.927 27.3916 127.794 27.733 127.705C28.0777 127.615 28.4389 127.552 28.8168 127.516C29.2609 127.469 29.6188 127.426 29.8906 127.386C30.1624 127.343 30.3596 127.28 30.4822 127.197C30.6049 127.115 30.6662 126.992 30.6662 126.83V126.8C30.6662 126.485 30.5668 126.241 30.3679 126.069C30.1723 125.897 29.8939 125.81 29.5327 125.81C29.1515 125.81 28.8482 125.895 28.6229 126.064C28.3975 126.23 28.2483 126.438 28.1754 126.69L26.2166 126.531C26.3161 126.067 26.5116 125.666 26.8033 125.328C27.0949 124.987 27.4711 124.725 27.9318 124.543C28.3958 124.357 28.9328 124.264 29.5426 124.264C29.9669 124.264 30.3729 124.314 30.7607 124.413C31.1518 124.513 31.4981 124.667 31.7997 124.876C32.1046 125.085 32.3449 125.353 32.5206 125.681C32.6963 126.006 32.7841 126.395 32.7841 126.849V132H30.7756V130.941H30.7159C30.5933 131.18 30.4292 131.39 30.2237 131.572C30.0182 131.751 29.7713 131.892 29.483 131.995C29.1946 132.094 28.8615 132.144 28.4837 132.144ZM29.0902 130.683C29.4018 130.683 29.6768 130.621 29.9155 130.499C30.1541 130.373 30.3414 130.204 30.4773 129.991C30.6132 129.779 30.6811 129.539 30.6811 129.271V128.46C30.6148 128.503 30.5237 128.543 30.4077 128.58C30.295 128.613 30.1674 128.644 30.0249 128.674C29.8823 128.701 29.7398 128.725 29.5973 128.749C29.4548 128.768 29.3255 128.787 29.2095 128.803C28.9609 128.84 28.7438 128.898 28.5582 128.977C28.3726 129.057 28.2285 129.165 28.1257 129.3C28.023 129.433 27.9716 129.599 27.9716 129.798C27.9716 130.086 28.076 130.306 28.2848 130.459C28.4969 130.608 28.7654 130.683 29.0902 130.683ZM37.9911 132.124C37.4111 132.124 36.8858 131.975 36.4151 131.677C35.9478 131.375 35.5766 130.933 35.3015 130.349C35.0297 129.763 34.8938 129.044 34.8938 128.192C34.8938 127.317 35.0347 126.589 35.3164 126.009C35.5981 125.426 35.9727 124.99 36.44 124.702C36.9106 124.41 37.426 124.264 37.9862 124.264C38.4137 124.264 38.77 124.337 39.055 124.483C39.3434 124.625 39.5754 124.804 39.7511 125.02C39.93 125.232 40.0659 125.441 40.1587 125.646H40.2234V121.818H42.3363V132H40.2482V130.777H40.1587C40.0593 130.989 39.9184 131.2 39.7362 131.408C39.5572 131.614 39.3235 131.785 39.0352 131.92C38.7501 132.056 38.4021 132.124 37.9911 132.124ZM38.6623 130.439C39.0037 130.439 39.292 130.346 39.5273 130.161C39.766 129.972 39.9483 129.708 40.0742 129.37C40.2035 129.032 40.2681 128.636 40.2681 128.182C40.2681 127.728 40.2051 127.333 40.0792 126.999C39.9532 126.664 39.771 126.405 39.5323 126.223C39.2937 126.041 39.0037 125.95 38.6623 125.95C38.3143 125.95 38.021 126.044 37.7823 126.233C37.5437 126.422 37.363 126.684 37.2404 127.018C37.1178 127.353 37.0565 127.741 37.0565 128.182C37.0565 128.626 37.1178 129.019 37.2404 129.36C37.3664 129.698 37.547 129.963 37.7823 130.156C38.021 130.344 38.3143 130.439 38.6623 130.439ZM44.8276 134.864V124.364H46.9157V125.646H47.0101C47.1029 125.441 47.2372 125.232 47.4128 125.02C47.5918 124.804 47.8238 124.625 48.1088 124.483C48.3972 124.337 48.7551 124.264 49.1827 124.264C49.7395 124.264 50.2533 124.41 50.7239 124.702C51.1945 124.99 51.5707 125.426 51.8525 126.009C52.1342 126.589 52.275 127.317 52.275 128.192C52.275 129.044 52.1375 129.763 51.8624 130.349C51.5906 130.933 51.2194 131.375 50.7488 131.677C50.2814 131.975 49.7578 132.124 49.1777 132.124C48.7667 132.124 48.4171 132.056 48.1287 131.92C47.8437 131.785 47.61 131.614 47.4277 131.408C47.2454 131.2 47.1062 130.989 47.0101 130.777H46.9455V134.864H44.8276ZM46.9007 128.182C46.9007 128.636 46.9637 129.032 47.0897 129.37C47.2156 129.708 47.3979 129.972 47.6365 130.161C47.8752 130.346 48.1652 130.439 48.5066 130.439C48.8513 130.439 49.1429 130.344 49.3816 130.156C49.6202 129.963 49.8008 129.698 49.9235 129.36C50.0494 129.019 50.1124 128.626 50.1124 128.182C50.1124 127.741 50.0511 127.353 49.9284 127.018C49.8058 126.684 49.6252 126.422 49.3865 126.233C49.1479 126.044 48.8546 125.95 48.5066 125.95C48.1619 125.95 47.8702 126.041 47.6316 126.223C47.3962 126.405 47.2156 126.664 47.0897 126.999C46.9637 127.333 46.9007 127.728 46.9007 128.182ZM56.5549 127.585V132H54.437V121.818H56.4952V125.711H56.5847C56.757 125.26 57.0355 124.907 57.4199 124.652C57.8044 124.393 58.2866 124.264 58.8667 124.264C59.397 124.264 59.8593 124.38 60.2537 124.612C60.6515 124.841 60.9597 125.171 61.1784 125.602C61.4005 126.029 61.5099 126.541 61.5066 127.138V132H59.3887V127.516C59.392 127.045 59.2727 126.679 59.0307 126.417C58.7921 126.155 58.4573 126.024 58.0265 126.024C57.7381 126.024 57.4829 126.085 57.2608 126.208C57.0421 126.331 56.8697 126.51 56.7438 126.745C56.6212 126.977 56.5582 127.257 56.5549 127.585ZM67.3736 132.149C66.6013 132.149 65.9335 131.985 65.37 131.657C64.8099 131.326 64.3774 130.865 64.0724 130.275C63.7675 129.682 63.6151 128.994 63.6151 128.212C63.6151 127.423 63.7675 126.733 64.0724 126.143C64.3774 125.55 64.8099 125.089 65.37 124.761C65.9335 124.43 66.6013 124.264 67.3736 124.264C68.1458 124.264 68.812 124.43 69.3722 124.761C69.9356 125.089 70.3698 125.55 70.6747 126.143C70.9796 126.733 71.1321 127.423 71.1321 128.212C71.1321 128.994 70.9796 129.682 70.6747 130.275C70.3698 130.865 69.9356 131.326 69.3722 131.657C68.812 131.985 68.1458 132.149 67.3736 132.149ZM67.3835 130.509C67.7348 130.509 68.0282 130.409 68.2635 130.21C68.4988 130.008 68.6761 129.733 68.7955 129.385C68.9181 129.037 68.9794 128.641 68.9794 128.197C68.9794 127.753 68.9181 127.357 68.7955 127.009C68.6761 126.661 68.4988 126.385 68.2635 126.183C68.0282 125.981 67.7348 125.88 67.3835 125.88C67.0289 125.88 66.7306 125.981 66.4886 126.183C66.25 126.385 66.0694 126.661 65.9467 127.009C65.8274 127.357 65.7678 127.753 65.7678 128.197C65.7678 128.641 65.8274 129.037 65.9467 129.385C66.0694 129.733 66.25 130.008 66.4886 130.21C66.7306 130.409 67.0289 130.509 67.3835 130.509ZM75.3771 127.585V132H73.2592V124.364H75.2777V125.711H75.3672C75.5362 125.267 75.8196 124.915 76.2173 124.657C76.6151 124.395 77.0973 124.264 77.6641 124.264C78.1944 124.264 78.6567 124.38 79.0511 124.612C79.4455 124.844 79.7521 125.176 79.9709 125.607C80.1896 126.034 80.299 126.545 80.299 127.138V132H78.1811V127.516C78.1844 127.048 78.0651 126.684 77.8232 126.422C77.5812 126.157 77.2481 126.024 76.8239 126.024C76.5388 126.024 76.2869 126.085 76.0682 126.208C75.8527 126.331 75.6837 126.51 75.5611 126.745C75.4418 126.977 75.3804 127.257 75.3771 127.585ZM86.1983 132.149C85.4128 132.149 84.7367 131.99 84.1699 131.672C83.6065 131.35 83.1723 130.896 82.8674 130.31C82.5624 129.72 82.41 129.022 82.41 128.217C82.41 127.431 82.5624 126.742 82.8674 126.148C83.1723 125.555 83.6015 125.093 84.155 124.761C84.7118 124.43 85.3648 124.264 86.1138 124.264C86.6176 124.264 87.0866 124.345 87.5208 124.508C87.9583 124.667 88.3394 124.907 88.6642 125.229C88.9924 125.55 89.2476 125.955 89.4299 126.442C89.6122 126.926 89.7033 127.492 89.7033 128.142V128.724H83.2551V127.411H87.7097C87.7097 127.106 87.6434 126.836 87.5108 126.601C87.3783 126.366 87.1943 126.182 86.959 126.049C86.727 125.913 86.4569 125.845 86.1486 125.845C85.8271 125.845 85.5421 125.92 85.2935 126.069C85.0482 126.215 84.856 126.412 84.7168 126.661C84.5776 126.906 84.5063 127.179 84.503 127.481V128.729C84.503 129.107 84.5726 129.433 84.7118 129.708C84.8543 129.983 85.0549 130.195 85.3134 130.344C85.5719 130.494 85.8785 130.568 86.2331 130.568C86.4685 130.568 86.6839 130.535 86.8794 130.469C87.075 130.402 87.2424 130.303 87.3816 130.17C87.5208 130.038 87.6268 129.875 87.6998 129.683L89.6586 129.812C89.5591 130.283 89.3553 130.694 89.0471 131.045C88.7421 131.393 88.3477 131.665 87.8638 131.861C87.3832 132.053 86.8281 132.149 86.1983 132.149ZM98.1891 126.541L96.2502 126.661C96.217 126.495 96.1458 126.346 96.0364 126.213C95.927 126.077 95.7828 125.969 95.6039 125.89C95.4282 125.807 95.2177 125.766 94.9725 125.766C94.6444 125.766 94.3676 125.835 94.1422 125.974C93.9168 126.11 93.8042 126.293 93.8042 126.521C93.8042 126.704 93.8771 126.858 94.0229 126.984C94.1687 127.11 94.419 127.211 94.7736 127.287L96.1557 127.565C96.8981 127.718 97.4516 127.963 97.8162 128.301C98.1808 128.639 98.3631 129.083 98.3631 129.634C98.3631 130.134 98.2156 130.573 97.9206 130.951C97.629 131.329 97.2279 131.624 96.7175 131.836C96.2104 132.045 95.6254 132.149 94.9625 132.149C93.9516 132.149 93.1462 131.939 92.5463 131.518C91.9498 131.094 91.6001 130.517 91.4973 129.788L93.5804 129.678C93.6434 129.987 93.7959 130.222 94.0378 130.384C94.2798 130.543 94.5897 130.623 94.9675 130.623C95.3387 130.623 95.637 130.552 95.8624 130.409C96.0911 130.263 96.2071 130.076 96.2104 129.847C96.2071 129.655 96.1259 129.498 95.9668 129.375C95.8077 129.249 95.5624 129.153 95.231 129.087L93.9086 128.823C93.1628 128.674 92.6077 128.415 92.2431 128.048C91.8818 127.68 91.7012 127.211 91.7012 126.641C91.7012 126.15 91.8337 125.728 92.0989 125.373C92.3674 125.018 92.7435 124.745 93.2275 124.553C93.7147 124.36 94.2847 124.264 94.9377 124.264C95.9022 124.264 96.6612 124.468 97.2147 124.876C97.7715 125.283 98.0963 125.839 98.1891 126.541Z" fill="#474747"/>
</svg>
