<svg width="104" height="138" viewBox="0 0 104 138" fill="none" xmlns="http://www.w3.org/2000/svg">
<rect width="104" height="104" rx="52" fill="white"/>
<g clip-path="url(#clip0_309_937)">
<path d="M62.2 20.2C60.9375 20.6 59.95 21.525 59.5125 22.6875C59.3 23.2625 59.275 23.65 59.275 25.8875C59.2875 28.125 59.2625 28.5625 59.025 29.4C58.5625 31.1125 57.925 32.075 56.7625 32.8625C55.475 33.7375 54.125 34.325 52.625 34.6875C51.3 34.9875 51.1625 34.9625 50.9875 34.3375C50.5875 32.8125 49.2625 30.6 48.1625 29.625C46.525 28.1625 43.125 27.35 41.15 27.9375C40.1 28.25 39.3 29.125 39.075 30.1875C39.0375 30.3875 38.775 33.45 38.5 36.9875L37.9875 43.4125L33.55 54.1125C31.1125 60 29.0375 64.9125 28.9625 65.025C28.875 65.1375 27.35 66.475 25.5625 68C23.775 69.5125 22.0375 71.075 21.7125 71.475C20.125 73.375 19.6125 76.025 20.375 78.375C20.7 79.35 21.1 80.0375 22.3125 81.625C23.7 83.45 24.4375 83.85 26.6375 83.9625C29.95 84.1375 33.775 83.325 37.075 81.75C39.45 80.625 36.5625 82.7125 69.2625 58.5375C78.4125 51.7625 78.7 51.55 80.25 49.925C81.55 48.5625 82.45 47.3375 83.125 46C83.9875 44.2875 84.1875 43.175 83.8125 42.1125C83.5375 41.35 83.125 40.8625 82 40C81.4625 39.575 80.7375 38.8875 80.4 38.475C79.8 37.75 79.6 37.425 78.0875 34.6625C76.2375 31.2875 73.625 27.875 70.6375 24.9C68.8125 23.0875 66.2125 20.9375 65.3 20.4875C64.3625 20.025 63.125 19.9 62.2 20.2ZM64 22.25C64.9875 22.525 69.3 26.375 71.4875 28.9375C73.275 31.025 76.05 34.9875 75.975 35.325C75.95 35.4 75.0375 36.1375 73.9375 36.9625C72.775 37.825 71.8 38.6625 71.6 38.95C71.125 39.6375 70.7375 40.55 70.6375 41.225L70.5625 41.8L69.3125 42.5C64.05 45.4375 60.025 49.5375 57.1125 54.925L56.4375 56.1625L55.0625 56.9875C49.875 60.1375 47.4125 62.25 43.1875 67.1875C37.15 74.2625 30.8125 78.125 25.275 78.125C24.2125 78.125 22.8125 77.9375 22.525 77.7625C22.4375 77.7125 22.3 77.325 22.225 76.9C21.9875 75.5875 22.45 73.8875 23.3375 72.8125C23.65 72.45 29.95 67 30.4375 66.675C30.575 66.5875 32.9125 65.55 35.625 64.3625C38.4875 63.125 40.9125 61.9875 41.4 61.6625C42.45 60.975 43.475 59.85 44.0375 58.775C44.275 58.3125 46.1125 53.2375 48.1125 47.5125C50.125 41.775 51.775 37.0625 51.7875 37.05C51.8 37.025 52.25 36.925 52.7625 36.8125C54.1125 36.5375 55.3125 36.1125 56.5875 35.45C58.675 34.375 59.85 33.175 60.6 31.35C61.2625 29.75 61.425 28.725 61.425 25.9125C61.4375 23.0375 61.475 22.9375 62.5 22.4C63.1125 22.1 63.35 22.075 64 22.25ZM44.7 30.175C46.15 30.5625 47.1 31.325 47.975 32.7875C48.4125 33.5125 49.025 34.9 48.9375 34.975C48.9125 35 48.425 34.9625 47.8625 34.8875C44.925 34.4875 43.15 34.975 41.475 36.625C41 37.075 40.625 37.375 40.625 37.2875C40.625 36.475 41.1625 30.625 41.25 30.4C41.3125 30.25 41.5 30.0625 41.65 30C42.0125 29.8375 43.8625 29.95 44.7 30.175ZM48.075 37.0375L49.4625 37.1875L45.9375 47.2625C44 52.8 42.2625 57.6125 42.0625 57.95C41.55 58.825 40.5375 59.7875 39.65 60.2375C39 60.5625 32.0375 63.625 31.9375 63.625C31.925 63.625 32.3625 62.5125 32.925 61.1625L33.95 58.7125L36.95 57.8625C40.1875 56.9375 40.5 56.775 40.5 55.9875C40.5 55.5 40.0125 55 39.5375 55C39.3375 55 38.3 55.25 37.225 55.5625C36.15 55.875 35.2125 56.125 35.1375 56.125C35.075 56.125 35.2625 55.55 35.55 54.85L36.0875 53.5625L37.95 53.0375C41.9375 51.9 42 51.8625 42 51.0625C42 50.5125 41.5375 50 41.0625 50C40.875 50 39.95 50.225 39 50.5C38.05 50.775 37.2375 51 37.2125 51C37.15 51 38.1125 48.6 38.2375 48.475C38.275 48.425 39.3625 48.0875 40.625 47.725C43.175 47.0125 43.5 46.825 43.5 46.075C43.5 45.75 43.4125 45.575 43.1125 45.325C42.9 45.15 42.65 45 42.5375 45C42.3875 45 41.5 45.2375 39.475 45.825C39.3125 45.875 39.3875 45.6125 39.8 44.6125C40.1 43.9125 40.425 43.3 40.5125 43.25C40.6125 43.2 41.5375 42.9125 42.5625 42.625C43.9875 42.2375 44.5 42.0375 44.725 41.8C45.075 41.4125 45.075 40.8875 44.7375 40.45C44.4125 40.025 43.9 40.025 42.525 40.425C41.9625 40.5875 41.5 40.675 41.5 40.6125C41.5 40.2875 42.275 38.85 42.7 38.375C43.975 36.975 45 36.7125 48.075 37.0375ZM79.025 40.175C79.4125 40.6125 80.1625 41.2875 80.6875 41.6875C81.2125 42.075 81.7 42.55 81.7625 42.7375C82.275 44.0375 79.9125 47.65 76.9625 50.1C76.375 50.5875 76 50.8125 75.9625 50.7125C75.925 50.6375 75.225 48.925 74.4 46.925C72.7125 42.8375 72.575 42.4125 72.675 41.7C72.8375 40.6375 73.325 40.0625 75.25 38.625L77.05 37.2875L77.675 38.3375C78.025 38.9125 78.6375 39.7375 79.025 40.175ZM72.55 48.025C73.4375 50.175 74.1625 52 74.175 52.0875C74.1875 52.1625 70.1125 55.25 65.125 58.925C54.7375 66.6125 55.7375 66.1125 56.3125 63.325C57.8625 55.6375 62.5375 49.0375 69.3125 44.9625C70.075 44.5 70.75 44.125 70.8125 44.125C70.8875 44.125 71.6625 45.8875 72.55 48.025ZM55.075 59.775C54.3375 62.3375 53.75 65.375 53.75 66.65C53.75 66.95 53.675 67.2875 53.6 67.4C53.4125 67.625 39.25 78.0875 38.3125 78.6875C36.7125 79.7125 34.5 80.6625 32.5625 81.1625C30.6 81.6625 29.575 81.8 27.5625 81.8C25.4 81.8125 25.0125 81.7 24.375 80.825L23.9875 80.3125L25.8375 80.225C28.0125 80.1375 29.75 79.7375 31.875 78.8375C36.25 77 40.95 73.225 45.1375 68.1875C47.025 65.9125 48.9125 64.025 50.85 62.4625C52.2875 61.3125 54.8375 59.5125 55.05 59.5C55.1 59.5 55.1125 59.625 55.075 59.775Z" fill="#8F8F8F"/>
<path d="M67.7501 49.3375C67.4501 49.725 67.4501 50.0625 67.7626 51.8125C68.0126 53.2625 68.8501 53.8 69.6376 53.0125C70.0626 52.5875 70.0626 52.55 69.8126 51.0625C69.5001 49.2625 69.3376 49 68.4501 49C68.1251 49 67.9501 49.0875 67.7501 49.3375Z" fill="#8F8F8F"/>
<path d="M63.9 52.125C63.3375 52.3625 63.25 52.9 63.525 54.4375C63.8 56 64.0375 56.375 64.7 56.375C65.275 56.375 65.4875 56.2625 65.7 55.85C65.8625 55.525 65.8625 55.3625 65.6375 54.125C65.35 52.5625 65.2375 52.2875 64.8 52.125C64.425 51.975 64.275 51.975 63.9 52.125Z" fill="#8F8F8F"/>
</g>
<path d="M32.4991 123.593V121.818H40.8613V123.593H37.7441V132H35.6163V123.593H32.4991ZM45.3214 132.149C44.5359 132.149 43.8597 131.99 43.293 131.672C42.7295 131.35 42.2953 130.896 41.9904 130.31C41.6855 129.72 41.533 129.022 41.533 128.217C41.533 127.431 41.6855 126.742 41.9904 126.148C42.2953 125.555 42.7246 125.093 43.2781 124.761C43.8349 124.43 44.4878 124.264 45.2369 124.264C45.7406 124.264 46.2096 124.345 46.6438 124.508C47.0813 124.667 47.4625 124.907 47.7873 125.229C48.1154 125.55 48.3706 125.955 48.5529 126.442C48.7352 126.926 48.8263 127.492 48.8263 128.142V128.724H42.3782V127.411H46.8327C46.8327 127.106 46.7665 126.836 46.6339 126.601C46.5013 126.366 46.3174 126.182 46.082 126.049C45.85 125.913 45.5799 125.845 45.2717 125.845C44.9502 125.845 44.6651 125.92 44.4165 126.069C44.1713 126.215 43.979 126.412 43.8398 126.661C43.7006 126.906 43.6294 127.179 43.6261 127.481V128.729C43.6261 129.107 43.6957 129.433 43.8349 129.708C43.9774 129.983 44.1779 130.195 44.4364 130.344C44.695 130.494 45.0015 130.568 45.3562 130.568C45.5915 130.568 45.8069 130.535 46.0025 130.469C46.198 130.402 46.3654 130.303 46.5046 130.17C46.6438 130.038 46.7499 129.875 46.8228 129.683L48.7816 129.812C48.6822 130.283 48.4783 130.694 48.1701 131.045C47.8652 131.393 47.4708 131.665 46.9869 131.861C46.5063 132.053 45.9511 132.149 45.3214 132.149ZM46.1864 123.449L45.1871 122.236L44.1879 123.449H42.3832V123.379L44.3967 121.192H45.9727L47.9911 123.379V123.449H46.1864ZM53.0763 127.585V132H50.9585V124.364H52.9769V125.711H53.0664C53.2354 125.267 53.5188 124.915 53.9165 124.657C54.3143 124.395 54.7965 124.264 55.3633 124.264C55.8936 124.264 56.3559 124.38 56.7504 124.612C57.1448 124.844 57.4513 125.176 57.6701 125.607C57.8888 126.034 57.9982 126.545 57.9982 127.138V132H55.8803V127.516C55.8836 127.048 55.7643 126.684 55.5224 126.422C55.2804 126.157 54.9473 126.024 54.5231 126.024C54.238 126.024 53.9862 126.085 53.7674 126.208C53.552 126.331 53.3829 126.51 53.2603 126.745C53.141 126.977 53.0797 127.257 53.0763 127.585ZM60.4174 132V124.364H62.5353V132H60.4174ZM61.4814 123.379C61.1665 123.379 60.8964 123.275 60.671 123.066C60.4489 122.854 60.3379 122.6 60.3379 122.305C60.3379 122.014 60.4489 121.763 60.671 121.555C60.8964 121.343 61.1665 121.237 61.4814 121.237C61.7962 121.237 62.0647 121.343 62.2868 121.555C62.5121 121.763 62.6248 122.014 62.6248 122.305C62.6248 122.6 62.5121 122.854 62.2868 123.066C62.0647 123.275 61.7962 123.379 61.4814 123.379ZM71.3356 126.541L69.3967 126.661C69.3635 126.495 69.2923 126.346 69.1829 126.213C69.0735 126.077 68.9293 125.969 68.7504 125.89C68.5747 125.807 68.3642 125.766 68.119 125.766C67.7908 125.766 67.5141 125.835 67.2887 125.974C67.0633 126.11 66.9506 126.293 66.9506 126.521C66.9506 126.704 67.0236 126.858 67.1694 126.984C67.3152 127.11 67.5655 127.211 67.9201 127.287L69.3022 127.565C70.0446 127.718 70.5981 127.963 70.9627 128.301C71.3273 128.639 71.5096 129.083 71.5096 129.634C71.5096 130.134 71.3621 130.573 71.0671 130.951C70.7755 131.329 70.3744 131.624 69.864 131.836C69.3569 132.045 68.7719 132.149 68.109 132.149C67.0981 132.149 66.2927 131.939 65.6928 131.518C65.0962 131.094 64.7466 130.517 64.6438 129.788L66.7269 129.678C66.7899 129.987 66.9424 130.222 67.1843 130.384C67.4263 130.543 67.7362 130.623 68.114 130.623C68.4852 130.623 68.7835 130.552 69.0089 130.409C69.2376 130.263 69.3536 130.076 69.3569 129.847C69.3536 129.655 69.2724 129.498 69.1133 129.375C68.9542 129.249 68.7089 129.153 68.3775 129.087L67.055 128.823C66.3093 128.674 65.7541 128.415 65.3896 128.048C65.0283 127.68 64.8477 127.211 64.8477 126.641C64.8477 126.15 64.9802 125.728 65.2454 125.373C65.5138 125.018 65.89 124.745 66.3739 124.553C66.8612 124.36 67.4312 124.264 68.0842 124.264C69.0487 124.264 69.8076 124.468 70.3612 124.876C70.918 125.283 71.2428 125.839 71.3356 126.541Z" fill="#474747"/>
<defs>
<clipPath id="clip0_309_937">
<rect width="64" height="64" fill="white" transform="translate(20 20)"/>
</clipPath>
</defs>
</svg>
